<svg width="24" height="24" viewBox="0 0 24 24" fill="none" xmlns="http://www.w3.org/2000/svg">
<path fill-rule="evenodd" clip-rule="evenodd" d="M14.9523 8.69382C14.9837 8.46706 15 8.23543 15 8C15 7.80132 14.9884 7.60536 14.9659 7.41273C15.4196 7.14986 15.9429 7 16.5 7C18.2359 7 19.6429 8.45488 19.6429 10.25C19.6429 12.0451 18.2359 13.5 16.5 13.5C16.4842 13.5 16.4685 13.4999 16.4528 13.4996C15.77 12.8256 14.9017 12.339 13.9315 12.1236C13.7955 11.9245 13.6806 11.7089 13.5901 11.4803C13.8909 11.1701 14.1518 10.821 14.3647 10.4412C14.4579 11.621 15.406 12.5 16.5 12.5C17.6523 12.5 18.6429 11.5247 18.6429 10.25C18.6429 8.9753 17.6523 8 16.5 8C15.9019 8 15.3473 8.26278 14.9523 8.69382ZM17.5 20H20.8214C21.4721 20 22 19.4541 22 18.7812V17.725C22 15.841 20.5219 14.3125 18.7 14.3125H18.29C17.9855 14.4571 17.662 14.5669 17.3244 14.6357C17.4913 14.9295 17.6305 15.2412 17.7383 15.5671C18.0017 15.5017 18.2572 15.4161 18.5031 15.3125H18.7C19.9383 15.3125 21 16.3614 21 17.725V18.7812C21 18.9337 20.8885 19 20.8214 19H17.95C17.8749 19.3694 17.7184 19.7093 17.5 20Z" fill="#303133"/>
<path d="M13.5 8C13.5 9.93323 11.9332 11.5 10 11.5C8.06677 11.5 6.5 9.93323 6.5 8C6.5 6.06677 8.06677 4.5 10 4.5C11.9332 4.5 13.5 6.06677 13.5 8ZM10 14C10.8479 14 11.655 13.8192 12.385 13.5H12.8C14.8426 13.5 16.5 15.1574 16.5 17.2V18.5C16.5 19.052 16.052 19.5 15.5 19.5H4.5C3.94802 19.5 3.5 19.052 3.5 18.5V17.2C3.5 15.1574 5.15739 13.5 7.2 13.5H7.61536C8.34718 13.8189 9.15143 14 10 14Z" stroke="#303133"/>
<path d="M5.5 17H7" stroke="#303133" stroke-linecap="round"/>
</svg>
